ply
format ascii 1.0
element vertex 1108
property float x
property float y
property float z
end_header
0 0 0
nan nan nan
0 0 0
nan nan nan
0 0 0
nan nan nan
0 0 0
nan nan nan
0 0 0
nan nan nan
0 0 0
nan nan nan
0 0 0
nan nan nan
0 0 0
nan nan nan
0 0 0
nan nan nan
0 0 0
nan nan nan
0 0 0
nan nan nan
0 0 0
nan nan nan
0 0 0
nan nan nan
0 0 0
nan nan nan
0 0 0
nan nan nan
0 0 0
nan nan nan
0 0 0
nan nan nan
0 0 0
nan nan nan
0 0 0
nan nan nan
0 0 0
nan nan nan
0 0 0
nan nan nan
0 0 0
nan nan nan
0 0 0
nan nan nan
0 0 0
nan nan nan
0 0 0
nan nan nan
0 0 0
nan nan nan
0 0 0
nan nan nan
0 0 0
nan nan nan
0 0 0
nan nan nan
0 0 0
nan nan nan
0 0 0
nan nan nan
0 0 0
nan nan nan
0 0 0
nan nan nan
0 0 0
nan nan nan
0 0 0
nan nan nan
0 0 0
nan nan nan
0 0 0
nan nan nan
0 0 0
nan nan nan
0 0 0
nan nan nan
0 0 0
nan nan nan
0 0 0
nan nan nan
0 0 0
nan nan nan
0 0 0
nan nan nan
0 0 0
nan nan nan
0 0 0
nan nan nan
0 0 0
nan nan nan
0 0 0
nan nan nan
0 0 0
nan nan nan
0 0 0
nan nan nan
0 0 0
nan nan nan
0 0 0
nan nan nan
0 0 0
nan nan nan
0 0 0
nan nan nan
0 0 0
nan nan nan
0 0 0
nan nan nan
0 0 0
nan nan nan
0 0 0
nan nan nan
0 0 0
nan nan nan
0 0 0
nan nan nan
0 0 0
nan nan nan
0 0 0
nan nan nan
0 0 0
nan nan nan
0 0 0
nan nan nan
0 0 0
nan nan nan
0 0 0
nan nan nan
0 0 0
nan nan nan
0 0 0
nan nan nan
0 0 0
nan nan nan
0 0 0
nan nan nan
0 0 0
nan nan nan
0 0 0
nan nan nan
0 0 0
nan nan nan
0 0 0
nan nan nan
0 0 0
nan nan nan
0 0 0
nan nan nan
0 0 0
nan nan nan
0 0 0
nan nan nan
0 0 0
nan nan nan
0 0 0
nan nan nan
0 0 0
nan nan nan
0 0 0
nan nan nan
0 0 0
nan nan nan
0 0 0
nan nan nan
0 0 0
nan nan nan
0 0 0
nan nan nan
0 0 0
nan nan nan
0 0 0
nan nan nan
0 0 0
nan nan nan
0 0 0
nan nan nan
0 0 0
nan nan nan
0 0 0
nan nan nan
0 0 0
nan nan nan
0 0 0
nan nan nan
0 0 0
nan nan nan
0 0 0
nan nan nan
0 0 0
nan nan nan
0 0 0
nan nan nan
0 0 0
nan nan nan
0 0 0
nan nan nan
0 0 0
nan nan nan
0 0 0
nan nan nan
0 0 0
nan nan nan
0 0 0
nan nan nan
0 0 0
nan nan nan
0 0 0
nan nan nan
0 0 0
nan nan nan
0 0 0
nan nan nan
0 0 0
nan nan nan
0 0 0
nan nan nan
0 0 0
nan nan nan
0 0 0
nan nan nan
0 0 0
nan nan nan
0 0 0
nan nan nan
0 0 0
nan nan nan
0 0 0
nan nan nan
0 0 0
nan nan nan
0 0 0
nan nan nan
0 0 0
nan nan nan
0 0 0
nan nan nan
0 0 0
nan nan nan
0 0 0
nan nan nan
0 0 0
nan nan nan
0 0 0
nan nan nan
0 0 0
nan nan nan
0 0 0
nan nan nan
0 0 0
nan nan nan
0 0 0
nan nan nan
0 0 0
nan nan nan
0 0 0
nan nan nan
0 0 0
nan nan nan
0 0 0
nan nan nan
0 0 0
nan nan nan
0 0 0
nan nan nan
0 0 0
nan nan nan
0 0 0
nan nan nan
0 0 0
nan nan nan
0 0 0
nan nan nan
0 0 0
nan nan nan
0 0 0
nan nan nan
0 0 0
nan nan nan
0 0 0
nan nan nan
0 0 0
nan nan nan
0 0 0
nan nan nan
0 0 0
nan nan nan
0 0 0
nan nan nan
0 0 0
nan nan nan
0 0 0
nan nan nan
0 0 0
nan nan nan
0 0 0
nan nan nan
0 0 0
nan nan nan
0 0 0
nan nan nan
0 0 0
nan nan nan
0 0 0
nan nan nan
0 0 0
nan nan nan
0 0 0
nan nan nan
0 0 0
nan nan nan
0 0 0
nan nan nan
0 0 0
nan nan nan
0 0 0
nan nan nan
0 0 0
nan nan nan
0 0 0
nan nan nan
0 0 0
nan nan nan
0 0 0
nan nan nan
0 0 0
nan nan nan
0 0 0
nan nan nan
0 0 0
nan nan nan
0 0 0
nan nan nan
0 0 0
nan nan nan
0 0 0
nan nan nan
0 0 0
nan nan nan
0 0 0
nan nan nan
0 0 0
nan nan nan
0 0 0
nan nan nan
0 0 0
nan nan nan
0 0 0
nan nan nan
0 0 0
nan nan nan
0 0 0
nan nan nan
0 0 0
nan nan nan
0 0 0
nan nan nan
0 0 0
nan nan nan
0 0 0
nan nan nan
0 0 0
nan nan nan
0 0 0
nan nan nan
0 0 0
nan nan nan
0 0 0
nan nan nan
0 0 0
nan nan nan
0 0 0
nan nan nan
0 0 0
nan nan nan
0 0 0
nan nan nan
0 0 0
nan nan nan
0 0 0
nan nan nan
0 0 0
nan nan nan
0 0 0
nan nan nan
0 0 0
nan nan nan
0 0 0
nan nan nan
0 0 0
nan nan nan
0 0 0
nan nan nan
0 0 0
nan nan nan
0 0 0
nan nan nan
0 0 0
nan nan nan
0 0 0
nan nan nan
0 0 0
nan nan nan
0 0 0
nan nan nan
0 0 0
nan nan nan
0 0 0
nan nan nan
0 0 0
nan nan nan
0 0 0
nan nan nan
0 0 0
nan nan nan
0 0 0
nan nan nan
0 0 0
nan nan nan
0 0 0
nan nan nan
0 0 0
nan nan nan
0 0 0
nan nan nan
0 0 0
nan nan nan
0 0 0
nan nan nan
0 0 0
nan nan nan
0 0 0
nan nan nan
0 0 0
nan nan nan
0 0 0
nan nan nan
0 0 0
nan nan nan
0 0 0
nan nan nan
0 0 0
nan nan nan
0 0 0
nan nan nan
0 0 0
nan nan nan
0 0 0
nan nan nan
0 0 0
nan nan nan
0 0 0
nan nan nan
0 0 0
nan nan nan
0 0 0
nan nan nan
0 0 0
nan nan nan
0 0 0
nan nan nan
0 0 0
nan nan nan
0 0 0
nan nan nan
0 0 0
nan nan nan
0 0 0
nan nan nan
0 0 0
nan nan nan
0 0 0
nan nan nan
0 0 0
nan nan nan
0 0 0
nan nan nan
0 0 0
nan nan nan
0 0 0
nan nan nan
0 0 0
nan nan nan
0 0 0
nan nan nan
0 0 0
nan nan nan
0 0 0
nan nan nan
0 0 0
nan nan nan
0 0 0
nan nan nan
0 0 0
nan nan nan
0 0 0
nan nan nan
0 0 0
nan nan nan
0 0 0
nan nan nan
0 0 0
nan nan nan
0 0 0
nan nan nan
0 0 0
nan nan nan
0 0 0
nan nan nan
0 0 0
nan nan nan
0 0 0
nan nan nan
0 0 0
nan nan nan
0 0 0
nan nan nan
0 0 0
nan nan nan
0 0 0
nan nan nan
0 0 0
nan nan nan
0 0 0
nan nan nan
0 0 0
nan nan nan
0 0 0
nan nan nan
0 0 0
nan nan nan
0 0 0
nan nan nan
0 0 0
nan nan nan
0 0 0
nan nan nan
0 0 0
nan nan nan
0 0 0
nan nan nan
0 0 0
nan nan nan
0 0 0
nan nan nan
0 0 0
nan nan nan
0 0 0
nan nan nan
0 0 0
nan nan nan
0 0 0
nan nan nan
0 0 0
nan nan nan
0 0 0
nan nan nan
0 0 0
nan nan nan
0 0 0
nan nan nan
0 0 0
nan nan nan
0 0 0
nan nan nan
0 0 0
nan nan nan
0 0 0
nan nan nan
0 0 0
nan nan nan
0 0 0
nan nan nan
0 0 0
nan nan nan
0 0 0
nan nan nan
0 0 0
nan nan nan
0 0 0
nan nan nan
0 0 0
nan nan nan
0 0 0
nan nan nan
0 0 0
nan nan nan
0 0 0
nan nan nan
0 0 0
nan nan nan
0 0 0
nan nan nan
0 0 0
nan nan nan
0 0 0
nan nan nan
0 0 0
nan nan nan
0 0 0
nan nan nan
0 0 0
nan nan nan
0 0 0
nan nan nan
0 0 0
nan nan nan
0 0 0
nan nan nan
0 0 0
nan nan nan
0 0 0
nan nan nan
0 0 0
nan nan nan
0 0 0
nan nan nan
0 0 0
nan nan nan
0 0 0
nan nan nan
0 0 0
nan nan nan
0 0 0
nan nan nan
0 0 0
nan nan nan
0 0 0
nan nan nan
0 0 0
nan nan nan
0 0 0
nan nan nan
0 0 0
nan nan nan
0 0 0
nan nan nan
0 0 0
nan nan nan
0 0 0
nan nan nan
0 0 0
nan nan nan
0 0 0
nan nan nan
0 0 0
nan nan nan
0 0 0
nan nan nan
0 0 0
nan nan nan
0 0 0
nan nan nan
0 0 0
nan nan nan
0 0 0
nan nan nan
0 0 0
nan nan nan
0 0 0
nan nan nan
0 0 0
nan nan nan
0 0 0
nan nan nan
0 0 0
nan nan nan
0 0 0
nan nan nan
0 0 0
nan nan nan
0 0 0
nan nan nan
0 0 0
nan nan nan
0 0 0
nan nan nan
0 0 0
nan nan nan
0 0 0
nan nan nan
0 0 0
nan nan nan
0 0 0
nan nan nan
0 0 0
nan nan nan
0 0 0
nan nan nan
0 0 0
nan nan nan
0 0 0
nan nan nan
0 0 0
nan nan nan
0 0 0
nan nan nan
0 0 0
nan nan nan
0 0 0
nan nan nan
0 0 0
nan nan nan
0 0 0
nan nan nan
0 0 0
nan nan nan
0 0 0
nan nan nan
0 0 0
nan nan nan
0 0 0
nan nan nan
0 0 0
nan nan nan
0 0 0
nan nan nan
0 0 0
nan nan nan
0 0 0
nan nan nan
0 0 0
nan nan nan
0 0 0
nan nan nan
0 0 0
nan nan nan
0 0 0
nan nan nan
0 0 0
nan nan nan
0 0 0
nan nan nan
0 0 0
nan nan nan
0 0 0
nan nan nan
0 0 0
nan nan nan
0 0 0
nan nan nan
0 0 0
nan nan nan
0 0 0
nan nan nan
0 0 0
nan nan nan
0 0 0
nan nan nan
0 0 0
nan nan nan
0 0 0
nan nan nan
0 0 0
nan nan nan
0 0 0
nan nan nan
0 0 0
nan nan nan
0 0 0
nan nan nan
0 0 0
nan nan nan
0 0 0
nan nan nan
0 0 0
nan nan nan
0 0 0
nan nan nan
0 0 0
nan nan nan
0 0 0
nan nan nan
0 0 0
nan nan nan
0 0 0
nan nan nan
0 0 0
nan nan nan
0 0 0
nan nan nan
0 0 0
nan nan nan
0 0 0
nan nan nan
0 0 0
nan nan nan
0 0 0
nan nan nan
0 0 0
nan nan nan
0 0 0
nan nan nan
0 0 0
nan nan nan
0 0 0
nan nan nan
0 0 0
nan nan nan
0 0 0
nan nan nan
0 0 0
nan nan nan
0 0 0
nan nan nan
0 0 0
nan nan nan
0 0 0
nan nan nan
0 0 0
nan nan nan
0 0 0
nan nan nan
0 0 0
nan nan nan
0 0 0
nan nan nan
0 0 0
nan nan nan
0 0 0
nan nan nan
0 0 0
nan nan nan
0 0 0
nan nan nan
0 0 0
nan nan nan
0 0 0
nan nan nan
0 0 0
nan nan nan
0 0 0
nan nan nan
0 0 0
nan nan nan
0 0 0
nan nan nan
0 0 0
nan nan nan
0 0 0
nan nan nan
0 0 0
nan nan nan
0 0 0
nan nan nan
0 0 0
nan nan nan
0 0 0
nan nan nan
0 0 0
nan nan nan
0 0 0
nan nan nan
0 0 0
nan nan nan
0 0 0
nan nan nan
0 0 0
nan nan nan
0 0 0
nan nan nan
0 0 0
nan nan nan
0 0 0
nan nan nan
0 0 0
nan nan nan
0 0 0
nan nan nan
0 0 0
nan nan nan
0 0 0
nan nan nan
0 0 0
nan nan nan
0 0 0
nan nan nan
0 0 0
nan nan nan
0 0 0
nan nan nan
0 0 0
nan nan nan
0 0 0
nan nan nan
0 0 0
nan nan nan
0 0 0
nan nan nan
0 0 0
nan nan nan
0 0 0
nan nan nan
0 0 0
nan nan nan
0 0 0
nan nan nan
0 0 0
nan nan nan
0 0 0
nan nan nan
0 0 0
nan nan nan
0 0 0
nan nan nan
0 0 0
nan nan nan
0 0 0
nan nan nan
0 0 0
nan nan nan
0 0 0
nan nan nan
0 0 0
nan nan nan
0 0 0
nan nan nan
0 0 0
nan nan nan
0 0 0
nan nan nan
0 0 0
nan nan nan
0 0 0
nan nan nan
0 0 0
nan nan nan
0 0 0
nan nan nan
0 0 0
nan nan nan
0 0 0
nan nan nan
0 0 0
nan nan nan
0 0 0
nan nan nan
0 0 0
nan nan nan
0 0 0
nan nan nan
0 0 0
nan nan nan
0 0 0
nan nan nan
0 0 0
nan nan nan
0 0 0
nan nan nan
0 0 0
nan nan nan
0 0 0
nan nan nan
0 0 0
nan nan nan
0 0 0
nan nan nan
0 0 0
nan nan nan
0 0 0
nan nan nan
0 0 0
nan nan nan
0 0 0
nan nan nan
0 0 0
nan nan nan
0 0 0
nan nan nan
0 0 0
nan nan nan
0 0 0
nan nan nan
0 0 0
nan nan nan
0 0 0
nan nan nan
0 0 0
nan nan nan
0 0 0
nan nan nan
0 0 0
nan nan nan
0 0 0
nan nan nan
0 0 0
nan nan nan
0 0 0
nan nan nan
0 0 0
nan nan nan
0 0 0
nan nan nan
0 0 0
nan nan nan
0 0 0
nan nan nan
0 0 0
nan nan nan
0 0 0
nan nan nan
0 0 0
nan nan nan
0 0 0
nan nan nan
0 0 0
nan nan nan
0 0 0
nan nan nan
0 0 0
nan nan nan
0 0 0
nan nan nan
0 0 0
nan nan nan
0 0 0
nan nan nan
0 0 0
nan nan nan
0 0 0
nan nan nan
0 0 0
nan nan nan
0 0 0
nan nan nan
0 0 0
nan nan nan
0 0 0
nan nan nan
0 0 0
nan nan nan
0 0 0
nan nan nan
0 0 0
nan nan nan
0 0 0
nan nan nan
0 0 0
nan nan nan
0 0 0
nan nan nan
0 0 0
nan nan nan
0 0 0
nan nan nan
0 0 0
nan nan nan
0 0 0
nan nan nan
0 0 0
nan nan nan
0 0 0
nan nan nan
0 0 0
nan nan nan
0 0 0
nan nan nan
0 0 0
nan nan nan
0 0 0
nan nan nan
0 0 0
nan nan nan
0 0 0
nan nan nan
0 0 0
nan nan nan
0 0 0
nan nan nan
0 0 0
nan nan nan
0 0 0
nan nan nan
0 0 0
nan nan nan
0 0 0
nan nan nan
0 0 0
nan nan nan
0 0 0
nan nan nan
0 0 0
nan nan nan
0 0 0
nan nan nan
0 0 0
nan nan nan
0 0 0
nan nan nan
0 0 0
nan nan nan
0 0 0
nan nan nan
0 0 0
nan nan nan
0 0 0
nan nan nan
0 0 0
nan nan nan
0 0 0
nan nan nan
0 0 0
nan nan nan
0 0 0
nan nan nan
0 0 0
nan nan nan
