ply
format ascii 1.0
element vertex 27
property float x
property float y
property float z
end_header
0.0576549 0.499917 0.000251591
0.0598914 0.52011 0.000271419
0.0583521 0.506261 0.000254811
0.0583521 0.506261 0.000254811
0.0572375 0.496246 0.000241976
0.0566132 0.490656 0.000232865
0.072333 0.632317 0.000404974
0.0727181 0.635902 0.000386457
0.0748623 0.655216 0.000392024
0.0739125 0.646716 0.000380303
0.0709969 0.620612 0.000345781
0.0703001 0.614376 0.000336402
0.0737206 0.645046 0.000364872
0.0637917 0.556109 0.000253954
0.0687413 0.600542 0.000302079
0.0709564 0.620396 0.000319696
0.0712121 0.622686 0.000321743
0.0704685 0.616047 0.000311773
0.0697345 0.609479 0.000303846
0.0697345 0.609479 0.000303846
0.0707403 0.618487 0.00031281
0.0691096 0.603897 0.000295344
0.0700629 0.61244 0.000303023
0.0700782 0.612586 0.000301535
0.0696397 0.608661 0.000297367
0.0702286 0.613945 0.000300645
0.0680145 0.594132 0.000277948
